<svg width="215" height="100" viewBox="0 0 215 100" fill="none" xmlns="http://www.w3.org/2000/svg">
<g clip-path="url(#clip0_33_11)">
<path d="M34.0365 16.1755L31.5728 10.2447L37.8922 11.3888C43.9679 12.4888 50.9975 15.846 56.045 21.1866C59.5373 15.8693 63.7559 11.0646 68.9047 6.93937L74.2349 11.2135C72.5523 14.6402 71.7886 17.3758 71.4993 20.4812C76.1492 18.9636 81.9748 18.0602 89.0386 18.4817L99.5359 19.1082L90.7569 24.8974C88.9177 26.1102 87.2995 27.2884 85.8878 28.4449C91.445 28.4366 97.4172 29.6643 104.388 32.1943L113.029 35.3309L104.49 38.7355C100.442 40.3494 97.59 42.3364 94.7482 44.9929C100.532 46.8621 105.948 50.0447 109.873 53.4557L116.821 59.4935L107.617 59.5973C102.804 59.6516 97.1356 59.786 92.2097 60.4371C94.3833 64.0995 95.8385 68.2546 96.6157 72.853L98.3349 83.0249L90.781 75.9992C85.3319 70.9311 78.5345 67.0815 70.2602 64.4911L66.6243 63.3528C63.7159 64.8435 60.8689 66.6075 58.0805 68.571L59.0603 69.4226L57.1458 69.2381C51.3024 73.4644 45.7168 78.5385 40.3617 83.772L39.0167 85.0865L37.1782 84.6903C34.4491 84.1023 32.0457 83.5097 29.8573 82.8234L28.6507 82.445L27.9646 81.3828L25.4638 77.511L25.3 77.2575L23.9085 77.1329L16.5553 76.475L15.7656 76.4044L15.0834 76.0003C14.1961 75.4746 13.2285 74.8917 12.215 74.281C11.2921 73.725 10.331 73.1459 9.35757 72.5662L5.89371 70.5033L8.42266 67.3636C13.7686 60.7265 19.8791 55.4888 25.3944 50.7613C26.436 49.8685 27.4563 48.9939 28.4463 48.1315C30.4441 41.0261 34.4674 34.8851 39.9193 30.2667C37.9551 25.5759 35.9909 20.8804 34.0365 16.1755Z" stroke="#9841FF" stroke-width="7"/>
<path d="M108.8 34.85V22H113.15V35.05C113.15 35.2333 113.242 35.325 113.425 35.325H118.075C118.258 35.325 118.35 35.2333 118.35 35.05V22H122.7V34.85C122.7 37.7833 121.233 39.25 118.3 39.25H113.2C110.267 39.25 108.8 37.7833 108.8 34.85Z" fill="white"/>
<path d="M126.455 39.25V22H131.155L136.88 32V22H141.23V39.25H136.555L130.805 29.25V39.25H126.455Z" fill="white"/>
<path d="M145.132 39.25V22H149.482V39.25H145.132Z" fill="white"/>
<path d="M153.134 34.85V26.4C153.134 23.4667 154.6 22 157.534 22H164.584L166.534 23.5V25.925H157.759C157.575 25.925 157.484 26.0167 157.484 26.2V35.05C157.484 35.2333 157.575 35.325 157.759 35.325H162.684V32.425H159.859V28.5H167.034V39.25H157.534C154.6 39.25 153.134 37.7833 153.134 34.85Z" fill="white"/>
<path d="M170.425 39.25V22H174.775V39.25H170.425Z" fill="white"/>
<path d="M178.677 39.25V22H183.377L189.102 32V22H193.452V39.25H188.777L183.027 29.25V39.25H178.677Z" fill="white"/>
<path d="M197.353 39.25V22H209.428V25.925H201.703V28.5H208.678V32.425H201.703V35.325H209.428V39.25H197.353Z" fill="white"/>
<path d="M84.8719 70.4902V66.7072H97.0009C97.2869 66.7072 97.4299 66.5642 97.4299 66.2782V63.6262C97.4299 63.2622 97.2739 63.0542 96.9619 63.0022L89.7469 61.5202C86.4969 60.8962 84.8719 58.7252 84.8719 55.0072V52.7842C84.8719 48.2082 87.1599 45.9202 91.7359 45.9202H100.394L103.436 48.2602V52.0432H92.0869C91.8009 52.0432 91.6579 52.1862 91.6579 52.4722V54.9682C91.6579 55.3062 91.8139 55.5142 92.1259 55.5922L99.341 56.9962C102.591 57.6722 104.216 59.8562 104.216 63.5482V65.9662C104.216 70.5422 101.928 72.8302 97.3519 72.8302H87.9139L84.8719 70.4902Z" fill="white"/>
<path d="M108.732 65.9662V52.7842C108.732 48.2082 111.02 45.9202 115.596 45.9202H124.332C128.908 45.9202 131.196 48.2082 131.196 52.7842V65.9662C131.196 69.5022 129.844 71.6602 127.14 72.4402L129.636 77.3152L128.856 78.6802H122.967L120.003 72.8302H115.596C111.02 72.8302 108.732 70.5422 108.732 65.9662ZM115.518 66.2782C115.518 66.5642 115.661 66.7072 115.947 66.7072H123.981C124.267 66.7072 124.41 66.5642 124.41 66.2782V52.4722C124.41 52.1862 124.267 52.0432 123.981 52.0432H115.947C115.661 52.0432 115.518 52.1862 115.518 52.4722V66.2782Z" fill="white"/>
<path d="M136.653 65.9662V45.9202H143.439V66.2782C143.439 66.5642 143.582 66.7072 143.868 66.7072H151.122C151.408 66.7072 151.551 66.5642 151.551 66.2782V45.9202H158.337V65.9662C158.337 70.5422 156.049 72.8302 151.473 72.8302H143.517C138.941 72.8302 136.653 70.5422 136.653 65.9662Z" fill="white"/>
<path d="M161.815 71.5822L169.42 45.9202H179.56L187.165 71.5822L186.346 72.8302H180.652L179.326 68.0332H169.654L168.328 72.8302H162.634L161.815 71.5822ZM171.448 61.9102H177.532L174.724 52.0432H174.256L171.448 61.9102Z" fill="white"/>
<path d="M190.854 72.8302V45.9202H200.916C208.664 45.9202 212.538 49.7942 212.538 57.5422V61.2082C212.538 68.9562 208.664 72.8302 200.916 72.8302H190.854ZM197.64 66.7072H201.306C204.27 66.7072 205.752 65.2122 205.752 62.2222V56.5282C205.752 53.5382 204.27 52.0432 201.306 52.0432H197.64V66.7072Z" fill="white"/>
</g>
<defs>
<clipPath id="clip0_33_11">
<rect width="215" height="100" fill="white"/>
</clipPath>
</defs>
</svg>
