<svg width="127" height="89" viewBox="0 0 127 89" fill="none" xmlns="http://www.w3.org/2000/svg">
<path d="M34.0365 12.1755L31.5728 6.24473L37.8922 7.38881C43.9679 8.48878 50.9975 11.846 56.045 17.1866C59.5373 11.8693 63.7559 7.06457 68.9047 2.93937L74.2349 7.21346C72.5523 10.6402 71.7886 13.3758 71.4993 16.4812C76.1492 14.9636 81.9748 14.0602 89.0386 14.4817L99.5359 15.1082L90.7569 20.8974C88.9177 22.1102 87.2995 23.2884 85.8878 24.4449C91.445 24.4366 97.4172 25.6643 104.388 28.1943L113.029 31.3309L104.49 34.7355C100.442 36.3494 97.59 38.3364 94.7482 40.9929C100.532 42.8621 105.948 46.0447 109.873 49.4557L116.821 55.4935L107.617 55.5973C102.804 55.6516 97.1356 55.786 92.2097 56.4371C94.3832 60.0995 95.8385 64.2546 96.6157 68.853L98.3349 79.0249L90.781 71.9992C85.3319 66.9311 78.5345 63.0815 70.2602 60.4911L66.6243 59.3528C63.7159 60.8435 60.8689 62.6075 58.0805 64.571L59.0603 65.4226L57.1458 65.2381C51.3024 69.4644 45.7168 74.5385 40.3617 79.772L39.0167 81.0865L37.1782 80.6903C34.4491 80.1023 32.0457 79.5097 29.8573 78.8234L28.6507 78.445L27.9646 77.3828L25.4638 73.511L25.3 73.2575L23.9085 73.1329L16.5553 72.475L15.7656 72.4044L15.0834 72.0003C14.196 71.4746 13.2283 70.8916 12.2147 70.2808C11.2918 69.7248 10.3308 69.1458 9.35757 68.5662L5.89371 66.5033L8.42267 63.3636C13.7686 56.7265 19.8791 51.4888 25.3944 46.7613C26.436 45.8685 27.4563 44.9939 28.4463 44.1315C30.4441 37.0261 34.4674 30.8851 39.9193 26.2667C37.9551 21.5759 35.9909 16.8804 34.0365 12.1755Z" stroke="#9841FF" stroke-width="7"/>
</svg>
